<svg id="Group_19371" data-name="Group 19371" xmlns="http://www.w3.org/2000/svg" xmlns:xlink="http://www.w3.org/1999/xlink" width="90.374" height="55.938" viewBox="0 0 90.374 55.938">
  <defs>
    <clipPath id="clip-path">
      <rect id="Rectangle_77" data-name="Rectangle 77" width="90.373" height="55.938" fill="#fff" stroke="#fff" stroke-width="1"/>
    </clipPath>
  </defs>
  <g id="Group_19370" data-name="Group 19370" clip-path="url(#clip-path)">
    <path id="Path_136" data-name="Path 136" d="M261.021,13.492a.389.389,0,0,0,.091-.011,42.2,42.2,0,0,1,16.427,0h.005a.388.388,0,0,0,.072.007h0a.385.385,0,0,0,.09-.011,48.615,48.615,0,0,1,9.983-.8V30.692H275.88a.491.491,0,0,0,0,.976h24.5a.491.491,0,0,0,0-.976H288.563V12.678a48.818,48.818,0,0,1,9.984.8.387.387,0,0,0,.089.011h0a.387.387,0,0,0,.072-.007h.005a42.262,42.262,0,0,1,16.427,0,.391.391,0,0,0,.091.011.435.435,0,0,0,.4-.285.527.527,0,0,0-.133-.592,30.834,30.834,0,0,0-6.343-3.725,82.471,82.471,0,0,0-20.592-6.182V.487a.438.438,0,1,0-.869,0v2.22A82.473,82.473,0,0,0,267.1,8.889a30.841,30.841,0,0,0-6.343,3.725.527.527,0,0,0-.133.593.435.435,0,0,0,.395.285m27.107-9.808a.387.387,0,0,0,.106-.016c4.068,1.423,7.923,6.507,9.407,8.65a73.468,73.468,0,0,0-19.025,0c1.484-2.143,5.339-7.227,9.407-8.65a.387.387,0,0,0,.106.016m25.036,8.458a43.994,43.994,0,0,0-14.331.327,32.388,32.388,0,0,0-7.526-8.247c11.942,2.459,18.85,6.043,21.857,7.919M284.949,4.223a32.385,32.385,0,0,0-7.526,8.247,43.994,43.994,0,0,0-14.331-.327c3.007-1.876,9.914-5.461,21.857-7.919" transform="translate(-242.942 0.001)" fill="#fff" stroke="#fff" stroke-width="1"/>
    <path id="Path_137" data-name="Path 137" d="M.435,337.973h89.5a.491.491,0,0,0,0-.976h-9.8v-3.761a.464.464,0,0,0-.435-.488H71.315l-2.865-9.966,3.744-16.926a.536.536,0,0,0-.079-.418.419.419,0,0,0-.342-.187H63.94a.448.448,0,0,0-.422.37L60.33,320.035a.5.5,0,0,0,.317.591.434.434,0,0,0,.527-.356l3.107-14.044h6.936l-3.558,16.085H56.506a.443.443,0,0,0-.414.338l-2.9,10.1H49.339v-2.441a.464.464,0,0,0-.435-.488H45.616a.544.544,0,0,0,0-.055v-12.6h8.717a.491.491,0,0,0,0-.976h-18.3a.491.491,0,0,0,0,.976h8.717v12.6a.544.544,0,0,0,0,.055H41.469a.464.464,0,0,0-.435.488v2.441H37.184l-2.9-10.1a.443.443,0,0,0-.414-.338H22.716l-3.558-16.085h6.936L29.2,320.271a.434.434,0,0,0,.527.356.5.5,0,0,0,.317-.591L26.855,305.62a.448.448,0,0,0-.422-.37H18.6a.42.42,0,0,0-.342.187.536.536,0,0,0-.079.418l3.744,16.926-2.865,9.966H10.673a.464.464,0,0,0-.435.488V337H.435a.491.491,0,0,0,0,.976m56.388-14.685H67.682l2.72,9.46H63.483l-2.2-7.649a.427.427,0,0,0-.547-.315.5.5,0,0,0-.28.615l2.113,7.349H54.1ZM41.9,330.795H48.47v1.953H41.9Zm-19.212-7.508H33.551l2.72,9.46H27.8l2.113-7.349a.5.5,0,0,0-.28-.615.427.427,0,0,0-.547.315l-2.2,7.649H19.972ZM11.108,333.724H79.266V337H11.108Z" transform="translate(0 -282.034)" fill="#fff" stroke="#fff" stroke-width="1"/>
  </g>
</svg>
