<svg xmlns="http://www.w3.org/2000/svg" width="65.343" height="41.424" viewBox="0 0 65.343 41.424">
  <g id="Group_19428" data-name="Group 19428" transform="translate(1 1)">
    <path id="Path_208" data-name="Path 208" d="M46.006,10.63H35V9.254L37.752,1h5.5l2.751,8.254Z" transform="translate(11.776 -1)" fill="none" stroke="#fff" stroke-miterlimit="10" stroke-width="2"/>
    <line id="Line_311" data-name="Line 311" y2="5.92" transform="translate(51.503 10.823)" fill="none" stroke="#fff" stroke-miterlimit="10" stroke-width="2"/>
    <rect id="Rectangle_108" data-name="Rectangle 108" width="17.761" height="8.88" transform="translate(45.582 16.743)" fill="none" stroke="#fff" stroke-miterlimit="10" stroke-width="2"/>
    <rect id="Rectangle_109" data-name="Rectangle 109" width="17.761" height="8.88" transform="translate(45.582 25.624)" fill="none" stroke="#fff" stroke-miterlimit="10" stroke-width="2"/>
    <line id="Line_312" data-name="Line 312" y2="5.92" transform="translate(48.542 34.504)" fill="none" stroke="#fff" stroke-miterlimit="10" stroke-width="2"/>
    <line id="Line_313" data-name="Line 313" y2="5.92" transform="translate(39.662 34.504)" fill="none" stroke="#fff" stroke-miterlimit="10" stroke-width="2"/>
    <line id="Line_314" data-name="Line 314" y2="5.92" transform="translate(4.141 34.504)" fill="none" stroke="#fff" stroke-miterlimit="10" stroke-width="2"/>
    <line id="Line_315" data-name="Line 315" y2="5.92" transform="translate(63.343 34.504)" fill="none" stroke="#fff" stroke-miterlimit="10" stroke-width="2"/>
    <path id="Path_209" data-name="Path 209" d="M2,16.133V2.376A1.376,1.376,0,0,1,3.376,1h35.77a1.376,1.376,0,0,1,1.376,1.376V16.133" transform="translate(-0.623 -1)" fill="none" stroke="#fff" stroke-miterlimit="10" stroke-width="2"/>
    <path id="Path_210" data-name="Path 210" d="M42.273,31.885H1V18.127A4.127,4.127,0,0,1,5.127,14H38.145a4.127,4.127,0,0,1,4.127,4.127Z" transform="translate(-1 3.885)" fill="none" stroke="#fff" stroke-miterlimit="10" stroke-width="2"/>
    <path id="Path_211" data-name="Path 211" d="M6,13.5V10.752A2.751,2.751,0,0,1,8.752,8h5.5a2.751,2.751,0,0,1,2.752,2.752V13.5" transform="translate(0.879 1.63)" fill="none" stroke="#fff" stroke-miterlimit="10" stroke-width="2"/>
    <path id="Path_212" data-name="Path 212" d="M18,13.5V10.752A2.751,2.751,0,0,1,20.752,8h5.5a2.751,2.751,0,0,1,2.752,2.752V13.5" transform="translate(5.388 1.63)" fill="none" stroke="#fff" stroke-miterlimit="10" stroke-width="2"/>
  </g>
</svg>
