<svg xmlns="http://www.w3.org/2000/svg" width="55.604" height="55.627" viewBox="0 0 55.604 55.627">
  <g id="Group_19379" data-name="Group 19379" transform="translate(0.5 0.5)">
    <g id="Group_19380" data-name="Group 19380" transform="translate(0 0)">
      <path id="Path_142" data-name="Path 142" d="M27.172,54.626A27.052,27.052,0,0,1,0,27.633,26.95,26.95,0,0,1,27.272,0,27.012,27.012,0,0,1,54.6,27.51,27.081,27.081,0,0,1,27.172,54.626M1.323,27.333C.723,40.327,12.077,53.662,27.9,53.367c14.768-.275,25.93-13.113,25.445-26.806A26.255,26.255,0,0,0,26.579,1.315C11.737,1.655.895,14.468,1.323,27.333" transform="translate(0 0)" fill="#fff" stroke="#fff" stroke-width="1"/>
      <path id="Path_143" data-name="Path 143" d="M23.209,17.165c5.386,0,10.6-.171,15.8.054a8.3,8.3,0,0,1,7.806,7.835,20.478,20.478,0,0,1-.267,6.073c-1.03,4.358-4.264,6.729-8.769,6.822-2.126.044-4.254.007-6.48.007,0,2.272-.006,4.508,0,6.744,0,.976.036,1.953.056,2.929.014.713-.256,1.09-1.048,1.075-2.042-.038-4.085-.035-6.128-.024-.719,0-.967-.284-.966-1.014q.022-14.206,0-28.413c0-.7,0-1.409,0-2.088m1.32,1.27c0,2.681,0,5.221,0,7.76q-.017,10.16-.052,20.322c0,.657.176.885.855.853,1.3-.062,2.6-.055,3.905-.042.543.005.734-.225.733-.741-.009-2.9.009-5.8-.014-8.7-.009-1.146.089-1.3,1.218-1.3,2.338-.006,4.682-.108,7.012.015a7.488,7.488,0,0,0,7.379-6.656c.067-1.088-.006-2.187-.044-3.28a10.96,10.96,0,0,0-.186-2.638C44.247,20.3,41.72,18.456,37.8,18.442c-3.788-.014-7.577-.005-11.365-.006H24.529" transform="translate(-6.569 -4.841)" fill="#fff" stroke="#fff" stroke-width="1"/>
      <path id="Path_144" data-name="Path 144" d="M32.616,29.8c0-1.124.023-2.248-.009-3.372-.019-.681.281-1,.934-1,1.924,0,3.85-.058,5.769.033A3.824,3.824,0,0,1,43.145,29.5q.155,4.794-4.616,4.8-2.353,0-4.705,0c-1.131,0-1.184-.052-1.193-1.216-.008-1.094,0-2.189,0-3.283h-.014m1.364-2.985c0,1.882-.017,3.763.029,5.642,0,.176.4.488.622.491q2.391.03,4.781-.054a2.158,2.158,0,0,0,2.3-2.092c.222-2.414-.323-3.808-1.828-3.945-1.949-.176-3.927-.043-5.9-.043" transform="translate(-9.23 -7.193)" fill="#fff" stroke="#fff" stroke-width="1"/>
    </g>
  </g>
</svg>
