<svg xmlns="http://www.w3.org/2000/svg" width="63.857" height="54.789" viewBox="0 0 63.857 54.789">
  <g id="Group_19430" data-name="Group 19430" transform="translate(1 1)">
    <path id="Path_218" data-name="Path 218" d="M49.41,20H62.857v2.689s-4.034,1.12-4.034,4.034V32.1A10.758,10.758,0,0,1,48.065,42.86H15.792A10.758,10.758,0,0,1,5.034,32.1V26.724C5.034,23.81,1,22.689,1,22.689V20H35.963" transform="translate(-1 5.55)" fill="none" stroke="#fff" stroke-miterlimit="10" stroke-width="2"/>
    <path id="Path_219" data-name="Path 219" d="M37,37l1.345,4.034v1.345" transform="translate(11.41 11.41)" fill="none" stroke="#fff" stroke-miterlimit="10" stroke-width="2"/>
    <path id="Path_220" data-name="Path 220" d="M11.345,37,10,41.034v1.345" transform="translate(2.103 11.41)" fill="none" stroke="#fff" stroke-miterlimit="10" stroke-width="2"/>
    <path id="Path_221" data-name="Path 221" d="M14,7h5.379" transform="translate(3.479 1.068)" fill="none" stroke="#fff" stroke-miterlimit="10" stroke-width="2"/>
    <path id="Path_222" data-name="Path 222" d="M19.1,9.068V6.379A5.379,5.379,0,0,0,13.724,1H12.379A5.379,5.379,0,0,0,7,6.379V26.55" transform="translate(1.067 -1)" fill="none" stroke="#fff" stroke-miterlimit="10" stroke-width="2"/>
    <path id="Path_223" data-name="Path 223" d="M40.447,31.447H27v-12.1A1.345,1.345,0,0,1,28.345,18H39.1a1.345,1.345,0,0,1,1.345,1.345Z" transform="translate(7.961 4.86)" fill="none" stroke="#fff" stroke-miterlimit="10" stroke-width="2"/>
    <line id="Line_316" data-name="Line 316" y2="3.524" transform="translate(16.274 11.502)" fill="none" stroke="#fff" stroke-miterlimit="10" stroke-width="2"/>
    <line id="Line_317" data-name="Line 317" y2="3.524" transform="translate(23.322 11.502)" fill="none" stroke="#fff" stroke-miterlimit="10" stroke-width="2"/>
    <line id="Line_318" data-name="Line 318" transform="translate(19.798 18.549)" fill="none" stroke="#fff" stroke-miterlimit="10" stroke-width="2"/>
    <line id="Line_319" data-name="Line 319" transform="translate(16.274 18.549)" fill="none" stroke="#fff" stroke-miterlimit="10" stroke-width="2"/>
    <line id="Line_320" data-name="Line 320" transform="translate(26.846 18.549)" fill="none" stroke="#fff" stroke-miterlimit="10" stroke-width="2"/>
  </g>
</svg>
