<svg xmlns="http://www.w3.org/2000/svg" width="55.575" height="54.375" viewBox="0 0 55.575 54.375">
  <g id="Group_19429" data-name="Group 19429" transform="translate(0.308 0.3)">
    <path id="Path_213" data-name="Path 213" d="M7.146,110.416c-.981,0-1.873,0-2.766,0a2.042,2.042,0,0,1-2.1-2.825c.331-1.153.674-2.3,1.01-3.455.055-.19.1-.382.168-.636-.518,0-.964.011-1.408,0A1.993,1.993,0,0,1,.089,100.91c1.329-4.59,2.671-9.177,4.058-13.75a4.574,4.574,0,0,1,4.374-3.218q4.183-.04,8.367,0a4.7,4.7,0,0,1,4.47,3.439Q23.021,93,24.666,98.617c.217.74.418,1.484.643,2.221a1.964,1.964,0,0,1-1.905,2.639c-.462.005-.925,0-1.471,0,.415,1.418.813,2.738,1.182,4.065a2.988,2.988,0,0,1,.141,1.075,1.986,1.986,0,0,1-2.045,1.795c-.952.019-1.9,0-2.944,0v.827q0,6.565,0,13.13a2.751,2.751,0,0,1-3.04,3.07,3.082,3.082,0,0,1-2.517-.911,3.48,3.48,0,0,1-3.2.88A2.637,2.637,0,0,1,7.2,125.223a6.571,6.571,0,0,1-.055-.974q0-6.474,0-12.947v-.886m5.508-1.394q4.122,0,8.245,0c.925,0,1.129-.276.867-1.165q-1.875-6.378-3.754-12.755c-.356-1.21-.707-2.421-1.062-3.631a.656.656,0,0,1,.436-.924c.449-.138.741.1.883.526.051.155.1.311.143.467l2.673,9.065c.464,1.574.5,1.6,2.14,1.52.657-.032.879-.284.73-.948-.137-.612-.352-1.207-.529-1.811-1.128-3.845-2.247-7.692-3.386-11.533a3.34,3.34,0,0,0-3.4-2.529q-3.939-.016-7.878,0A3.363,3.363,0,0,0,5.369,87.85c-.52,1.734-1.029,3.471-1.541,5.207q-1.174,3.979-2.344,7.96c-.229.78.018,1.1.843,1.107.244,0,.491-.021.733,0,.626.066.915-.243,1.08-.818.769-2.678,1.562-5.35,2.348-8.023.218-.741.437-1.483.664-2.221a.692.692,0,1,1,1.314.416c-.03.1-.051.2-.08.295l-4.73,16.035c-.274.929-.076,1.207.876,1.208q4.061,0,8.123,0m.754,1.416v.6q0,6.709,0,13.418c0,1.177.488,1.617,1.769,1.615,1.21,0,1.7-.468,1.7-1.626q0-6.678,0-13.357v-.653Zm-4.87.009c0,4.833-.009,9.589.02,14.345a1.391,1.391,0,0,0,.467.938,2.178,2.178,0,0,0,2.2.193c.664-.234.79-.845.788-1.505-.01-4.453,0-8.906-.007-13.359,0-.2-.022-.392-.035-.613Z" transform="translate(0 -73.671)" fill="#fff" stroke="#fff" stroke-width="0.6"/>
    <path id="Path_214" data-name="Path 214" d="M295.228,105.4v.628q0,9.219,0,18.438a2.735,2.735,0,0,1-3.017,3.023,3.153,3.153,0,0,1-2.544-.911c-.89,1.022-2.064.978-3.226.874a2.68,2.68,0,0,1-2.331-2.767c-.011-2.462,0-4.925,0-7.387q0-5.617,0-11.234c0-.242,0-.485,0-.656-.757.059-1.476.171-2.193.158a2.692,2.692,0,0,1-2.673-2.757q0-6.925,0-13.851a4.717,4.717,0,0,1,4.979-4.98q5.525-.01,11.051,0a4.683,4.683,0,0,1,4.822,4.82q.014,6.96,0,13.92a2.683,2.683,0,0,1-2.819,2.85c-.661,0-1.321-.106-2.048-.17m-9.74,2.649v9.1c0,2.463,0,4.926,0,7.389,0,.668.189,1.268.865,1.459,1.226.347,2.676.217,2.657-1.723-.063-6.289-.023-12.58-.023-18.87,0-.791.213-1.133.7-1.126s.676.342.676,1.152q0,1.618,0,3.237,0,7.908-.005,15.817a1.474,1.474,0,0,0,.7,1.452,1.788,1.788,0,0,0,2.8-1.605q0-16.275,0-32.55c0-.224-.066-.495.036-.659.141-.229.422-.537.624-.523.244.017.5.305.684.533.091.114.029.354.029.537q0,5.466,0,10.931a1.408,1.408,0,0,0,.525,1.3,2.4,2.4,0,0,0,2.224.134c.656-.24.766-.875.765-1.527-.007-4.5,0-9-.006-13.5a3.4,3.4,0,0,0-3.664-3.66q-5.4-.007-10.809,0a3.364,3.364,0,0,0-3.624,3.617q-.006,4.946,0,9.893c0,1.34-.011,2.682.058,4.02a1.507,1.507,0,0,0,.5,1.029,2.3,2.3,0,0,0,2.162.132c.623-.215.742-.8.73-1.412-.006-.324.035-.649.034-.974q0-4.977-.016-9.954a2.571,2.571,0,0,1,.02-.548c.084-.379.337-.679.723-.566a1.34,1.34,0,0,1,.616.619c.09.151.023.4.023.6q0,8.122,0,16.244" transform="translate(-245.131 -73.719)" fill="#fff" stroke="#fff" stroke-width="0.6"/>
    <path id="Path_215" data-name="Path 215" d="M239.211,27.012V52.589c0,.911-.194,1.244-.714,1.229-.492-.014-.661-.325-.661-1.217q0-12.761,0-25.522,0-12.941,0-25.883a4.693,4.693,0,0,1,.007-.488A.68.68,0,0,1,239.2.7a4.683,4.683,0,0,1,.009.549q0,12.3,0,24.606,0,.58,0,1.159" transform="translate(-208.782 -0.057)" fill="#fff" stroke="#fff" stroke-width="0.6"/>
    <path id="Path_216" data-name="Path 216" d="M70.736.008a4.631,4.631,0,1,1-4.649,4.6,4.613,4.613,0,0,1,4.649-4.6m.017,7.865a3.248,3.248,0,0,0-.031-6.5,3.289,3.289,0,0,0-3.258,3.268,3.264,3.264,0,0,0,3.288,3.227" transform="translate(-58.013 -0.007)" fill="#fff" stroke="#fff" stroke-width="0.6"/>
    <path id="Path_217" data-name="Path 217" d="M326.753,4.606a4.633,4.633,0,1,1,9.265.07,4.633,4.633,0,0,1-9.265-.07m7.87.028a3.248,3.248,0,1,0-3.266,3.232,3.26,3.26,0,0,0,3.266-3.232" transform="translate(-286.84 0)" fill="#fff" stroke="#fff" stroke-width="0.6"/>
  </g>
</svg>
