<svg xmlns="http://www.w3.org/2000/svg" width="25.338" height="14.969" viewBox="442.766 78.516 25.338 14.969"><g data-name="Group 19325"><path d="M442.766 81.387h25.338v9.205h-25.338v-9.205z" fill="#fff" fill-rule="evenodd" data-name="Rectangle 62"/><g data-name="Group 19324"><g data-name="Group 19323" transform="translate(442.766 78.516)" clip-path="url(&quot;#a&quot;)"><path d="M.003 12.074c.045.003.09.009.135.009H25.2c.045 0 .09-.006.135-.009v2.895l-.111-.002H.115l-.112.002v-2.895" fill="#0237b7" fill-rule="evenodd" data-name="Path 108"/><path d="m25.336 2.873-.124.002H.127l-.124-.002V.003C.053.004.102 0 .151 0h22.28c.968 0 1.936.002 2.905.004v2.869Z" fill="#0237b7" fill-rule="evenodd" data-name="Path 109"/><path d="M16.023 5.542c-.069.196-.203.345-.296.518-.196.364-.408.72-.613 1.08-.032.056-.055.121-.099.167-.134.139-.058.259.017.386.319.545.636 1.092.954 1.637a.163.163 0 0 1 .03.098H14.93c-.346 0-.693.004-1.039-.002-.078-.002-.122.03-.156.09-.251.44-.498.883-.756 1.32-.103.173-.217.34-.314.53-.184-.314-.365-.612-.537-.915-.126-.223-.247-.447-.39-.66-.059-.088-.094-.188-.146-.28-.041-.07-.082-.084-.153-.084-.672.002-1.344.001-2.016.001H9.31c.075-.155.127-.316.222-.445.187-.251.316-.535.481-.799.117-.187.216-.385.333-.57.06-.095.055-.171.002-.261-.23-.394-.46-.787-.682-1.186-.1-.18-.235-.339-.322-.528-.046-.1-.016-.104.07-.104.665.002 1.328-.001 1.992.003.102 0 .159-.025.207-.124.084-.173.18-.341.286-.504.092-.14.159-.299.249-.443.123-.198.248-.395.355-.602.029-.055.099-.093.157-.126.043-.025.078-.002.107.045.164.262.319.53.475.797.168.287.315.586.499.865.044.068.088.092.167.091.676-.002 1.352 0 2.028 0 .027 0 .055.003.088.005M12.66 8.887c.243 0 .487-.003.73.002.072.001.11-.025.144-.086.1-.181.208-.359.31-.54.123-.222.249-.442.393-.652.03-.044.07-.115.024-.192-.246-.417-.485-.838-.727-1.257-.032-.055-.07-.093-.145-.093-.486.003-.972.002-1.458 0-.054 0-.084.016-.113.07-.236.417-.475.833-.722 1.245-.055.093-.043.16.014.24.06.085.12.172.173.263.178.305.353.612.525.92.035.064.078.083.148.081.235-.004.47-.001.704-.001m.496-3.352c-.01-.041-.01-.083-.03-.109-.16-.208-.269-.447-.403-.67-.037-.06-.064-.073-.102-.005-.038.068-.079.134-.117.202-.093.161-.183.324-.29.477-.031.043-.07.108.044.106.296-.002.592 0 .898 0m-1.92.54h-1.001l.457.803c.028.05.051.023.069-.006l.474-.797m2.875-.003c.156.28.303.542.452.804.018.03.04.043.07-.005.043-.068.075-.141.12-.209.125-.186.235-.383.358-.59h-1Zm.013 2.806h.98l-.46-.782c-.027-.047-.06-.035-.085.002a5.518 5.518 0 0 0-.435.78m-2.89.004c-.172-.265-.286-.531-.455-.766-.038-.053-.072-.071-.11.007-.045.091-.105.174-.155.263-.09.162-.179.325-.271.496h.99Zm.937.545.424.744c.034.058.112.052.152-.017.126-.212.25-.426.374-.638.033-.057.032-.09-.048-.09-.296.002-.591.001-.902.001" fill="#0237b7" fill-rule="evenodd" data-name="Path 110"/></g></g></g><defs><clipPath id="a"><path d="M0 0h25.338v14.969H0V0z" data-name="Rectangle 63"/></clipPath></defs></svg>