<svg id="Group_19210" data-name="Group 19210" xmlns="http://www.w3.org/2000/svg" xmlns:xlink="http://www.w3.org/1999/xlink" width="28.317" height="28.77" viewBox="0 0 28.317 28.77">
  <defs>
    <clipPath id="clip-path">
      <rect id="Rectangle_16" data-name="Rectangle 16" width="28.317" height="28.77" fill="none" stroke="#fff" stroke-width="1"/>
    </clipPath>
  </defs>
  <g id="Group_19209" data-name="Group 19209" clip-path="url(#clip-path)">
    <path id="Path_15" data-name="Path 15" d="M20.613,24.063l-.006,9.177c0,1.892,3.459,1.869,3.44-.028L23.983,28.2,23.9,17.813m.093,5.309c.482,1.338,1.206,1.507,1.716,1.2.84-.5.547-1.561.512-2.395l-.261-6.311c-.087-2.1-10.347-1.945-10.679-.021a40.653,40.653,0,0,0-.341,5.964c-.015,1-.368,3.052,1.08,2.892.418-.028.874-.393,1.211-1.33m.093-5.309L17.245,28.2l-.065,5.013c-.019,1.9,3.428,1.926,3.427.028M20.536,7a2.589,2.589,0,0,1,2.517,2.655,2.681,2.681,0,0,1-1.277,2.311,2.4,2.4,0,0,1-1.275.366,2.589,2.589,0,0,1-2.517-2.655A2.682,2.682,0,0,1,19.26,7.365,2.406,2.406,0,0,1,20.536,7Zm-8.5,18.7-.005,7.368c0,1.7,3.19,1.676,3.172-.025l-.058-5.226-.012-.772m-2.719-10.8c-2.409-.01-4.915.458-5.068,1.344a23.839,23.839,0,0,0-.305,4.4c-.013.9-.33,2.735.968,2.592.375-.025.783-.352,1.086-1.192m.083-3.884-.073,8.307L9.05,33.042c-.017,1.7,2.984,1.726,2.983.025m.025-23.32a2.32,2.32,0,0,1,2.256,2.38A2.4,2.4,0,0,1,13.17,14.2a2.158,2.158,0,0,1-1.143.328,2.321,2.321,0,0,1-2.256-2.38,2.4,2.4,0,0,1,1.144-2.071A2.158,2.158,0,0,1,12.058,9.748ZM29.007,25.7,29,33.308c0,1.7,3.19,1.676,3.172-.025l-.058-5.466-.073-8.307m.083,3.688c.432,1.2,1.081,1.351,1.538,1.076.753-.453.5-1.4.459-2.147l-.234-4.518c-.054-1.048-2.916-1.47-5.5-1.34M26.1,27.2l-.028.615-.058,5.466C26,34.984,29,35.009,29,33.308m.025-23.56a2.321,2.321,0,0,1,2.256,2.38A2.4,2.4,0,0,1,30.138,14.2,2.157,2.157,0,0,1,29,14.527a2.32,2.32,0,0,1-2.256-2.38,2.4,2.4,0,0,1,1.144-2.071A2.158,2.158,0,0,1,29.027,9.748Z" transform="translate(-6.44 -6.439)" fill="none" stroke="#fff" stroke-linecap="round" stroke-linejoin="round" stroke-width="1"/>
  </g>
</svg>
