<svg id="Group_19199" data-name="Group 19199" xmlns="http://www.w3.org/2000/svg" xmlns:xlink="http://www.w3.org/1999/xlink" width="29.976" height="27.256" viewBox="0 0 29.976 27.256">
  <defs>
    <clipPath id="clip-path">
      <rect id="Rectangle_11" data-name="Rectangle 11" width="29.976" height="27.256" fill="none" stroke="#fff" stroke-width="1"/>
    </clipPath>
  </defs>
  <g id="Group_19197" data-name="Group 19197" clip-path="url(#clip-path)">
    <path id="Path_5" data-name="Path 5" d="M34.007,20.286a5.73,5.73,0,0,0,1.671-5.253A10.084,10.084,0,0,0,33.055,10.1a11.77,11.77,0,0,0-2.8-2.248c-1.3-.728-5.365-1.793-8.025.8l-5.521,5.494c-1.49,1.483,2.27,2.918,4.174,1.042l1.391-1.371c2.055-1.863,4.636,1.871,7.855-.669M8.84,19.42a5.882,5.882,0,0,1-1.813-4.832A8.169,8.169,0,0,1,9.2,9.96a8.986,8.986,0,0,1,4.44-2.723,6.073,6.073,0,0,1,5,.879m7.788,8.29,5.9,6.186c1.451,1.521-.7,4.418-2.566,2.5l-3.332-3.436m-2.9,2.315,3.663,3.763c1.467,1.506,4.436-.721,2.574-2.643L26.175,21.4M25.7,30.334a1.943,1.943,0,0,0,.983-3.113M12.743,25.061a1.772,1.772,0,0,1-2.446-.187l-.2-.2a1.707,1.707,0,0,1,0-2.405l2.532-2.533a1.707,1.707,0,0,1,2.405,0l.2.2a1.876,1.876,0,0,1,.085,2.537m.324,5.109a1.942,1.942,0,0,1-2.588-.049l-.2-.2a1.707,1.707,0,0,1,0-2.4L16.891,20.9a1.706,1.706,0,0,1,2.405,0l.2.2c.948.948.489,2.122-.727,3.384m-.229,5.572a1.909,1.909,0,0,1-2.565-.018l-.2-.2a1.706,1.706,0,0,1,0-2.4l2.765-2.765a1.706,1.706,0,0,1,2.4,0l.2.2c.895.895.535,2.033-.592,3.207m2.174.193.2.2a1.708,1.708,0,0,1,0,2.4l-1.7,1.7a1.71,1.71,0,0,1-2.4,0l-.2-.2a1.708,1.708,0,0,1,0-2.405l1.7-1.7A1.706,1.706,0,0,1,22.722,28.264Z" transform="translate(-6.401 -6.4)" fill="none" stroke="#fff" stroke-linecap="round" stroke-linejoin="round" stroke-width="1"/>
  </g>
</svg>
