<svg id="Group_19206" data-name="Group 19206" xmlns="http://www.w3.org/2000/svg" xmlns:xlink="http://www.w3.org/1999/xlink" width="26.264" height="26.455" viewBox="0 0 26.264 26.455">
  <defs>
    <clipPath id="clip-path">
      <rect id="Rectangle_14" data-name="Rectangle 14" width="26.264" height="26.455" fill="none" stroke="#fff" stroke-width="1"/>
    </clipPath>
  </defs>
  <g id="Group_19205" data-name="Group 19205" clip-path="url(#clip-path)">
    <path id="Path_8" data-name="Path 8" d="M25.7,35.886V31.643a.92.92,0,0,0-.9-.9H22.256m-11.739,0H7.9a.916.916,0,0,0-.9.9V53.46a.912.912,0,0,0,.9.9H24.8a.915.915,0,0,0,.9-.9V46.59m4.233-11.847,2.281,2.281L20.38,48.858c-2.359,2.359-4.64.079-2.28-2.28Zm-2.52,10.049,4.429-4.412-3.786-3.787m-11.9,14.129,1.275-1.275" transform="translate(-6.475 -28.433)" fill="none" stroke="#fff" stroke-linecap="round" stroke-linejoin="round" stroke-width="1"/>
    <path id="Path_9" data-name="Path 9" d="M107.646,105.454h6.969M107.646,109h6.969" transform="translate(-99.568 -97.541)" fill="none" stroke="#fff" stroke-linecap="round" stroke-linejoin="round" stroke-width="1"/>
    <line id="Line_232" data-name="Line 232" x2="3.423" transform="translate(8.078 15.002)" fill="none" stroke="#fff" stroke-linecap="round" stroke-linejoin="round" stroke-width="1"/>
    <rect id="Rectangle_13" data-name="Rectangle 13" width="8.228" height="3.29" transform="translate(5.761 0.525)" fill="none" stroke="#fff" stroke-linecap="round" stroke-linejoin="round" stroke-width="1"/>
    <path id="Path_10" data-name="Path 10" d="M43.9,88.386l.875,1.142,1.786-2.312M43.9,92.036l.875,1.142,1.786-2.312m-2.687,4.794.875,1.142,1.786-2.312" transform="translate(-40.584 -80.671)" fill="none" stroke="#fff" stroke-linecap="round" stroke-linejoin="round" stroke-width="1"/>
  </g>
</svg>
