<svg id="Group_19212" data-name="Group 19212" xmlns="http://www.w3.org/2000/svg" xmlns:xlink="http://www.w3.org/1999/xlink" width="30.369" height="25.055" viewBox="0 0 30.369 25.055">
  <defs>
    <clipPath id="clip-path">
      <rect id="Rectangle_17" data-name="Rectangle 17" width="30.369" height="25.055" fill="#fff"/>
    </clipPath>
  </defs>
  <g id="Group_19211" data-name="Group 19211" clip-path="url(#clip-path)">
    <path id="Path_16" data-name="Path 16" d="M182.233,3.512V1.338c-.36,0-.707.006-1.054,0a.677.677,0,0,1-.732-.673A.68.68,0,0,1,181.195,0q1.722-.007,3.443,0a.667.667,0,0,1,.693.906.653.653,0,0,1-.657.427c-.349,0-.7,0-1.091,0V3.461c.742.143,1.462.233,2.154.422a10.763,10.763,0,0,1-.906,20.987,10.456,10.456,0,0,1-10.45-4,.692.692,0,0,1,.017-1.042c.335-.267.711-.183,1.036.231a9.446,9.446,0,1,0,9.358-15.028,9.217,9.217,0,0,0-9.353,3.452,1.223,1.223,0,0,1-.5.375.566.566,0,0,1-.672-.263.608.608,0,0,1,.027-.778A18.5,18.5,0,0,1,175.8,6.183a10.408,10.408,0,0,1,6.25-2.648c.05,0,.1-.012.179-.022" transform="translate(-163.335 -0.001)" fill="#fff"/>
    <path id="Path_17" data-name="Path 17" d="M6.426,220.542c1.134,0,2.268,0,3.4,0q1.129,0,2.258.016a.662.662,0,1,1-.015,1.319q-5.672,0-11.345,0A.664.664,0,0,1,0,221.233a.652.652,0,0,1,.663-.672c1.921-.006,3.842,0,5.763,0v-.016" transform="translate(0 -206.861)" fill="#fff"/>
    <path id="Path_18" data-name="Path 18" d="M269.919,179.343c.754-.651,1.478-1.278,2.2-1.9.672-.578,1.34-1.162,2.023-1.727a.671.671,0,1,1,.831,1.054q-2.293,1.963-4.588,3.924a.688.688,0,0,1-1.122-.073q-1.117-1.265-2.227-2.537a.677.677,0,0,1,0-1,.7.7,0,0,1,1.011.144c.616.694,1.228,1.392,1.864,2.114" transform="translate(-250.274 -164.676)" fill="#fff"/>
    <path id="Path_19" data-name="Path 19" d="M62.37,272.929c1.271,0,2.543,0,3.814,0a.663.663,0,1,1-.01,1.322c-1.075,0-2.15,0-3.225,0-1.457,0-2.915,0-4.372,0a.656.656,0,0,1-.661-.918.682.682,0,0,1,.7-.4c1.251.005,2.5,0,3.752,0" transform="translate(-54.266 -255.997)" fill="#fff"/>
    <path id="Path_20" data-name="Path 20" d="M100.791,168.433c-.785,0-1.569,0-2.354,0a2.689,2.689,0,0,1-.462-.036.643.643,0,0,1-.542-.656.656.656,0,0,1,.556-.648,1.256,1.256,0,0,1,.216-.012q2.527,0,5.054,0a.681.681,0,0,1,.754.546.646.646,0,0,1-.714.787c-.7.01-1.4,0-2.1,0h-.4v.019" transform="translate(-91.389 -156.714)" fill="#fff"/>
  </g>
</svg>
