<svg xmlns="http://www.w3.org/2000/svg" xmlns:xlink="http://www.w3.org/1999/xlink" width="25.116" height="25.116" viewBox="0 0 25.116 25.116">
  <defs>
    <clipPath id="clip-path">
      <rect id="Rectangle_68" data-name="Rectangle 68" width="25.116" height="25.116" fill="#130303"/>
    </clipPath>
  </defs>
  <g id="Group_19343" data-name="Group 19343" clip-path="url(#clip-path)">
    <path id="Path_114" data-name="Path 114" d="M43.915,33.518c-.006-.4-.012-.731-.018-.98s-.014-.516-.025-.8a6.268,6.268,0,0,0-.4-2.1,4.532,4.532,0,0,0-2.531-2.529,6.332,6.332,0,0,0-2.1-.4l-.814-.035c-.255-.012-.58-.018-.98-.018H33.519c-.4,0-.723.006-.978.018l-.814.035a6.22,6.22,0,0,0-2.1.4A4.536,4.536,0,0,0,27.1,29.637a6.22,6.22,0,0,0-.4,2.1c-.012.288-.022.557-.027.8s-.012.576-.016.98-.01.994-.01,1.766,0,1.38.01,1.786.01.729.016.978.016.518.027.806a6.209,6.209,0,0,0,.4,2.1,4.548,4.548,0,0,0,2.529,2.531,6.268,6.268,0,0,0,2.1.4l.806.035c.247.012.574.016.978.016h3.542c.4,0,.725,0,.98-.016l.814-.035a6.255,6.255,0,0,0,2.1-.4,4.545,4.545,0,0,0,2.531-2.531,6.257,6.257,0,0,0,.4-2.1c.012-.288.02-.557.025-.806s.012-.574.018-.978.01-1,.01-1.786,0-1.362-.01-1.766m-1.551,3.517q0,.588-.018.953c-.012.243-.024.508-.033.8a4.746,4.746,0,0,1-.3,1.594,2.682,2.682,0,0,1-.641,1,2.528,2.528,0,0,1-.986.641,4.772,4.772,0,0,1-1.611.294c-.29.012-.555.022-.8.028s-.561.012-.953.018-.97.008-1.733.008-1.356,0-1.749-.008-.712-.012-.953-.018-.51-.016-.8-.028a4.685,4.685,0,0,1-1.594-.294,3.016,3.016,0,0,1-1.006-.641,2.732,2.732,0,0,1-.641-1,4.765,4.765,0,0,1-.294-1.594c-.012-.29-.024-.555-.035-.8s-.016-.561-.016-.953V33.552c0-.392,0-.71.016-.953s.024-.508.035-.8a4.828,4.828,0,0,1,.294-1.611A2.6,2.6,0,0,1,29.2,29.2a2.74,2.74,0,0,1,1.006-.641,4.692,4.692,0,0,1,1.594-.294c.255-.024.488-.037.7-.043s.47-.01.77-.01h3.76q.588,0,.953.018c.243.012.508.024.8.035a4.779,4.779,0,0,1,1.611.294,2.83,2.83,0,0,1,1.627,1.629,4.809,4.809,0,0,1,.3,1.611c.01.288.021.555.033.8s.018.561.018.953Z" transform="translate(-22.73 -22.735)" fill="#130303"/>
    <path id="Path_115" data-name="Path 115" d="M62.845,56.461a4.442,4.442,0,1,0,1.3,3.135,4.273,4.273,0,0,0-1.3-3.135m-1.11,5.179a2.866,2.866,0,0,1-4.072,0,2.885,2.885,0,1,1,4.072,0" transform="translate(-47.143 -47.046)" fill="#130303"/>
    <path id="Path_116" data-name="Path 116" d="M111.745,48.053a1,1,0,0,1-.3.737.983.983,0,0,1-.719.3,1.037,1.037,0,0,1-1.039-1.041.974.974,0,0,1,.3-.717,1,1,0,0,1,.735-.3.975.975,0,0,1,.727.3,1,1,0,0,1,.3.717" transform="translate(-93.548 -40.113)" fill="#130303"/>
  </g>
</svg>
