<svg xmlns="http://www.w3.org/2000/svg" xmlns:xlink="http://www.w3.org/1999/xlink" width="44" height="61.757" viewBox="0 0 44 61.757">
  <defs>
    <clipPath id="clip-path">
      <rect id="Rectangle_113" data-name="Rectangle 113" width="43.931" height="61.504" fill="none"/>
    </clipPath>
  </defs>
  <g id="Group_19455" data-name="Group 19455" transform="translate(0.023 0)">
    <path id="Path_234" data-name="Path 234" d="M0,0V61.6H44V11.968L32.032,0Z" transform="translate(-0.023)" fill="#e6e6e5"/>
    <path id="Path_235" data-name="Path 235" d="M891.8,0V11.968h11.968Z" transform="translate(-859.792)" fill="#cccbcb"/>
    <rect id="Rectangle_112" data-name="Rectangle 112" width="44" height="14.256" transform="translate(-0.023 47.343)" fill="#ec1e24"/>
    <g id="Group_19454" data-name="Group 19454" transform="translate(0.045 0.253)">
      <g id="Group_19453" data-name="Group 19453" transform="translate(0 0)" clip-path="url(#clip-path)">
        <path id="Path_236" data-name="Path 236" d="M202.985,311.162s9.756-13.194,7.392-22.176c-1.76-6.688-5.1-1.056-3.168,5.28s8.517,12.943,12.848,14.432c5.632,1.936,8.272-1.584,2.64-3.52-3.431-1.18-16.145-2.338-23.936,4.4C192.249,315.21,198.233,317.674,202.985,311.162Z" transform="translate(-188.93 -275.952)" fill="none" stroke="#ec1e24" stroke-miterlimit="10" stroke-width="2"/>
        <path id="Path_237" data-name="Path 237" d="M382.095,1439.582v-6.3h2.041a7.4,7.4,0,0,1,1.513.094,1.653,1.653,0,0,1,.907.617,1.955,1.955,0,0,1,.365,1.227,2.056,2.056,0,0,1-.211.975,1.729,1.729,0,0,1-.535.621,1.846,1.846,0,0,1-.66.3,7.259,7.259,0,0,1-1.319.09h-.829v2.376Zm1.272-5.234v1.787h.7a3.287,3.287,0,0,0,1.005-.1.834.834,0,0,0,.4-.309.847.847,0,0,0,.144-.49.814.814,0,0,0-.2-.567.881.881,0,0,0-.511-.279,6.092,6.092,0,0,0-.915-.043Z" transform="translate(-368.439 -1382.055)" fill="#fff"/>
        <path id="Path_238" data-name="Path 238" d="M545.388,1433.283h2.325a4.539,4.539,0,0,1,1.2.12,2.108,2.108,0,0,1,.95.58,2.754,2.754,0,0,1,.6,1.021,4.647,4.647,0,0,1,.206,1.489,4.141,4.141,0,0,1-.193,1.341,2.777,2.777,0,0,1-.675,1.113,2.237,2.237,0,0,1-.894.5,3.847,3.847,0,0,1-1.126.133h-2.393Zm1.272,1.066v4.172h.95a3.453,3.453,0,0,0,.769-.06,1.173,1.173,0,0,0,.513-.262,1.334,1.334,0,0,0,.333-.608,4.111,4.111,0,0,0,.129-1.154,3.763,3.763,0,0,0-.129-1.121,1.443,1.443,0,0,0-.361-.61,1.211,1.211,0,0,0-.589-.3,5.778,5.778,0,0,0-1.044-.06Z" transform="translate(-525.867 -1382.055)" fill="#fff"/>
        <path id="Path_239" data-name="Path 239" d="M722.678,1439.583v-6.3H727v1.066H723.95v1.491h2.63v1.066h-2.63v2.677Z" transform="translate(-696.789 -1382.056)" fill="#fff"/>
      </g>
    </g>
  </g>
</svg>
