<svg xmlns="http://www.w3.org/2000/svg" xmlns:xlink="http://www.w3.org/1999/xlink" width="25.717" height="25.717" viewBox="0 0 25.717 25.717">
  <defs>
    <clipPath id="clip-path">
      <rect id="Rectangle_70" data-name="Rectangle 70" width="25.717" height="25.717" fill="#130303"/>
    </clipPath>
  </defs>
  <g id="Group_19348" data-name="Group 19348" clip-path="url(#clip-path)">
    <path id="Path_117" data-name="Path 117" d="M44.195,39.247a9.357,9.357,0,0,1-.817,1,5.72,5.72,0,0,1-1,.866v.646a10.029,10.029,0,0,1-.612,3.3,10.791,10.791,0,0,1-3.026,4.454,10.392,10.392,0,0,1-12.293.816,7.228,7.228,0,0,0,4.336-.832,7.968,7.968,0,0,0,1.037-.68,3.55,3.55,0,0,1-1.888-.579A3.742,3.742,0,0,1,28.4,46.285a5.38,5.38,0,0,0,.663.052h.562c.272-.057.408-.1.408-.119a2.8,2.8,0,0,1-.51-.136,3.893,3.893,0,0,1-1.259-.8,3.655,3.655,0,0,1-1.1-2.653,3.548,3.548,0,0,0,1.6.443v-.035a2.788,2.788,0,0,1-.713-.646,3.8,3.8,0,0,1-.851-2.43,3.743,3.743,0,0,1,.477-1.752,11.186,11.186,0,0,0,2.43,2.177,12.36,12.36,0,0,0,3.486,1.445,12.46,12.46,0,0,0,1.6.186,3.911,3.911,0,0,1-.1-.832,3.469,3.469,0,0,1,1.1-2.584,3.617,3.617,0,0,1,2.551-1.037,3.814,3.814,0,0,1,2.651,1.123,5.741,5.741,0,0,0,.834-.2,7.721,7.721,0,0,0,1.462-.68A4.171,4.171,0,0,1,42.9,39.2a5.221,5.221,0,0,1-.765.594v.035a6.149,6.149,0,0,0,2.041-.579Z" transform="translate(-22.462 -31.906)" fill="#130303"/>
  </g>
</svg>
