<svg xmlns="http://www.w3.org/2000/svg" xmlns:xlink="http://www.w3.org/1999/xlink" width="24.893" height="24.893" viewBox="0 0 24.893 24.893">
  <defs>
    <clipPath id="clip-path">
      <rect id="Rectangle_72" data-name="Rectangle 72" width="24.893" height="24.893" fill="#130303"/>
    </clipPath>
  </defs>
  <g id="Group_19353" data-name="Group 19353" clip-path="url(#clip-path)">
    <path id="Path_118" data-name="Path 118" d="M43.585,48.522q-.025-.671-.1-1.366a8.683,8.683,0,0,0-.213-1.226,2.207,2.207,0,0,0-.55-.953,2.082,2.082,0,0,0-.961-.558,9.335,9.335,0,0,0-1.615-.207c-.721-.044-1.469-.079-2.248-.1s-1.728-.046-2.85-.069q-1.7.034-2.866.061c-.777.017-1.527.052-2.248.1a11.9,11.9,0,0,0-1.613.2,2.08,2.08,0,0,0-.953.566,2.193,2.193,0,0,0-.558.961,8.163,8.163,0,0,0-.207,1.226c-.046.464-.079.917-.1,1.356s-.04.965-.052,1.571q.019.893.052,1.563c.023.445.056.9.1,1.356a7.629,7.629,0,0,0,.207,1.2,2.163,2.163,0,0,0,.55.969,2.073,2.073,0,0,0,.961.558,9.7,9.7,0,0,0,1.621.207q1.072.069,2.248.1c.786.023,1.736.04,2.858.052q1.683-.019,2.85-.044c.779-.017,1.527-.05,2.248-.1a11.636,11.636,0,0,0,1.615-.2,2.083,2.083,0,0,0,.961-.558,2.183,2.183,0,0,0,.55-.969,7.636,7.636,0,0,0,.2-1.21q.069-.7.1-1.356c.023-.441.04-.963.05-1.571-.01-.593-.025-1.116-.042-1.561M33.329,52.64V47.492l4.463,2.591Z" transform="translate(-22.589 -37.62)" fill="#130303"/>
  </g>
</svg>
